:SAMPLES-PER-SECOND 30
:FRAME-RANGE 1-1390
:FULLY-SPECIFIED
:DEGREES
956
root  -11.7591 37.6714 -72.8918 13.4417 77.7521 32.1745
RightUpLeg  5.6613 -2.00159 4.89376
RightLeg  37.308 -11.4389 -9.47063
RightFoot  -22.2172 -0.64369 -5.17885
RightToes  -2.9104e-010 0 -3.6325e-017
Spine  14.0415 -1.63663 -6.22511
Spine1  -2.62784 -5.84309 6.63816
HEad  16.1283 13.3985 -5.50358
LeftShoulder1  3.24548 -5.09633 -31.7344
LeftArm  64.7092 -33.6738 -83.9739
LeftForeArm  12.4689 -12.1714 -15.3912
LeftHand  -0.0279323 4.85496 0.116118
RightShoulder  13.9464 22.6297 46.5524
RightArm  46.5644 7.50204 24.4057
RightForeArm  16.2865 22.4072 4.53153
RightHand  1.22764 7.58747 10.549
LeftUpLeg  -94.9326 21.8026 -74.2569
LeftLeg  123.425 -5.42134 7.08629
LeftFoot  9.53865 1.41158 -7.9691
LeftToes  5.45371e-012 -1.3743e-010 1.09575e-010
957
root  -11.0394 38.8648 -72.9123 15.2654 74.8983 33.6776
RightUpLeg  7.09821 0.852402 2.90634
RightLeg  34.5028 -10.1937 -7.70241
RightFoot  -15.1411 -0.15985 -1.73244
RightToes  -2.9104e-010 0 -3.6325e-017
Spine  13.4711 -0.627354 -6.08371
Spine1  -3.2662 -4.62592 5.40362
HEad  16.5424 13.9868 -6.04743
LeftShoulder1  3.19237 -5.06023 -31.2703
LeftArm  66.3735 -33.2964 -83.8048
LeftForeArm  10.8287 -12.6651 -15.1379
LeftHand  -0.0263189 4.70701 -0.226891
RightShoulder  14.0998 22.4625 47.3948
RightArm  45.8506 7.14073 24.4716
RightForeArm  16.0587 21.5023 5.12514
RightHand  1.22458 7.7293 10.4013
LeftUpLeg  -96.9425 20.9177 -73.8606
LeftLeg  123.747 -6.96319 9.09125
LeftFoot  11.5537 1.39799 -7.24749
LeftToes  5.45371e-012 -1.3743e-010 1.09575e-010
958
root  -10.4748 39.7865 -73.014 13.557 73.6251 31.7783
RightUpLeg  5.84285 1.0687 1.55006
RightLeg  35.7948 -8.02312 -6.42851
RightFoot  -6.53813 -0.181423 3.26435
RightToes  -2.9104e-010 0 -3.6325e-017
Spine  13.7434 -0.359658 -5.77343
Spine1  -2.85667 -4.46147 5.83587
HEad  16.2246 15.2215 -6.89614
LeftShoulder1  3.16218 -5.04155 -30.9962
LeftArm  75.4838 -33.0584 -83.9184
LeftForeArm  2.01153 -15.2345 -13.5778
LeftHand  -0.0239772 4.57276 -0.113182
RightShoulder  14.3127 22.5319 47.9938
RightArm  43.7628 7.81166 24.0474
RightForeArm  17.2132 20.9063 5.53464
RightHand  1.16002 7.68873 9.86904
LeftUpLeg  -97.73 20.1975 -72.983
LeftLeg  123.172 -7.64257 10.2174
LeftFoot  11.333 1.4169 -7.40697
LeftToes  5.45371e-012 -1.3743e-010 1.09575e-010
959
root  -9.98827 40.3315 -73.1059 9.70966 73.9163 28.4534
RightUpLeg  3.60157 -0.198024 1.15721
RightLeg  39.1359 -5.8906 -5.3912
RightFoot  1.25266 -0.531152 4.88722
RightToes  -2.9104e-010 0 -3.6325e-017
Spine  15.9908 -0.611032 -5.51672
Spine1  -2.79377 -5.02235 7.32807
HEad  16.7152 16.3428 -6.99831
LeftShoulder1  3.14708 -5.07149 -30.6879
LeftArm  78.5721 -33.7012 -84.974
LeftForeArm  -0.493357 -15.8973 -13.1146
LeftHand  -0.0253604 4.67433 -0.106869
RightShoulder  14.2908 22.8583 47.3049
RightArm  42.3215 8.53936 23.8982
RightForeArm  18.7843 20.8833 5.45969
RightHand  1.16099 8.0772 9.57436
LeftUpLeg  -97.0253 20.3572 -72.4859
LeftLeg  122.343 -7.1929 9.90367
LeftFoot  9.29998 1.19646 -6.87746
LeftToes  5.45371e-012 -1.3743e-010 1.09575e-010
960
root  -9.56333 40.5441 -73.1452 8.84598 73.426 26.7219
RightUpLeg  0.516318 0.0564056 0.92382
RightLeg  38.0973 -3.82789 -3.48507
RightFoot  0.358327 -0.480866 4.71374
RightToes  -2.9104e-010 0 -3.6325e-017
Spine  16.9018 -0.681055 -5.61415
Spine1  -2.89785 -5.28622 7.68689
HEad  17.0802 16.8956 -6.95877
LeftShoulder1  3.15516 -5.16607 -30.3776
LeftArm  75.3499 -34.5548 -85.7958
LeftForeArm  2.02059 -14.8604 -13.8963
LeftHand  -0.0286735 4.93807 0.225595
RightShoulder  13.9805 22.5967 46.7314
RightArm  43.0016 9.82342 23.8775
RightForeArm  18.7496 21.3917 5.06385
RightHand  1.10909 8.06154 9.14297
LeftUpLeg  -97.2445 20.3672 -73.4211
LeftLeg  121.291 -5.8829 8.37246
LeftFoot  8.64706 1.50016 -8.8007
LeftToes  5.45371e-012 -1.3743e-010 1.09575e-010
961
root  -9.21322 40.4527 -73.1642 4.56796 72.3393 21.3032
RightUpLeg  -1.01186 0.263652 2.09306
RightLeg  29.9779 -6.83061 -4.47985
RightFoot  -2.40324 -0.515611 6.37989
RightToes  -2.9104e-010 0 -3.6325e-017
Spine  18.0758 -0.648418 -4.23631
Spine1  -2.80976 -5.23809 7.50381
HEad  16.9377 17.7178 -7.37993
LeftShoulder1  3.12305 -5.11323 -30.2258
LeftArm  75.4707 -35.3217 -86.082
LeftForeArm  1.15725 -14.7595 -14.0242
LeftHand  -0.0284276 4.94541 0.604965
RightShoulder  14.009 22.9923 46.0977
RightArm  42.1424 11.0511 24.0148
RightForeArm  19.512 21.5827 4.87737
RightHand  1.08978 7.95784 9.05266
LeftUpLeg  -98.2579 20.8435 -73.3253
LeftLeg  120.466 -4.7886 6.96134
LeftFoot  10.0222 1.93861 -10.5806
LeftToes  5.45371e-012 -1.3743e-010 1.09575e-010
